<svg xmlns="http://www.w3.org/2000/svg" xmlns:xlink="http://www.w3.org/1999/xlink" width="68" height="69.5" viewBox="0 0 68 69.5" fill="none"><defs><rect id="path_0" x="0" y="0" width="68" height="69.5" /><linearGradient id="linear_0" x1="50%" y1="100%" x2="49.999999999999986%" y2="-5.551115123125781e-15%" gradientUnits="objectBoundingBox"><stop offset="0" stop-color="#B88D63" stop-opacity="1" /><stop offset="1" stop-color="#FCBA77" stop-opacity="0.54" /></linearGradient></defs><g opacity="1" transform="translate(0 0)  rotate(0 34 34.75)"><mask id="bg-mask-0" fill="white"><use xlink:href="#path_0"></use></mask><g mask="url(#bg-mask-0)" ><path id="路径 1" fill-rule="evenodd" fill="url(#linear_0)" transform="translate(0 0)  rotate(0 34.000000000000014 34.75)" opacity="1" d="M23.5 8L30 13.5L38.5 13.5L44 8L57.5 18L61.5 13.5L33.5 0L6 13.5L10.5 18L23.5 8ZM33.5 65.5L63.5 42.5L55.5 35.5L63.5 25.5L68 25.5L68 42.5L51.5 65.5L33.5 69.5L14.5 65.5L0 42.5L0 25.5L3.5 25.5L12 35.5L3.5 42.5L33.5 65.5Z" /><g opacity="1" transform="translate(24.5 26)  rotate(0 9.5 9.5)"><text><tspan x="-7.059999999999999" y="22" font-size="36" line-height="0" fill="#D6A97C" opacity="1" font-family="YouSheBiaoTiYuan" letter-spacing="0" >顶</tspan></text></g></g></g></svg>